<svg width="42" height="42" viewBox="0 0 42 42" fill="none" xmlns="http://www.w3.org/2000/svg">
<path d="M19.25 22.75H10.5C10.0042 22.75 9.58884 22.582 9.25401 22.246C8.91917 21.91 8.75117 21.4947 8.75001 21C8.74884 20.5053 8.91684 20.09 9.25401 19.754C9.59117 19.418 10.0065 19.25 10.5 19.25H19.25V10.5C19.25 10.0042 19.418 9.58884 19.754 9.25401C20.09 8.91917 20.5053 8.75117 21 8.75001C21.4947 8.74884 21.9106 8.91684 22.2478 9.25401C22.5849 9.59117 22.7523 10.0065 22.75 10.5V19.25H31.5C31.9958 19.25 32.4118 19.418 32.7478 19.754C33.0838 20.09 33.2512 20.5053 33.25 21C33.2488 21.4947 33.0808 21.9106 32.746 22.2478C32.4112 22.5849 31.9958 22.7523 31.5 22.75H22.75V31.5C22.75 31.9958 22.582 32.4118 22.246 32.7478C21.91 33.0838 21.4947 33.2512 21 33.25C20.5053 33.2488 20.09 33.0808 19.754 32.746C19.418 32.4112 19.25 31.9958 19.25 31.5V22.75Z" fill="#FFC74B"/>
</svg>
