<svg width="24" height="24" viewBox="0 0 24 24" fill="none" xmlns="http://www.w3.org/2000/svg">
<path d="M2.58333 20.6667H4.42396L17.05 8.04063L15.2094 6.2L2.58333 18.826V20.6667ZM0 23.25V17.7604L17.05 0.742708C17.3083 0.505903 17.5938 0.322917 17.9064 0.19375C18.219 0.0645835 18.547 0 18.8906 0C19.2342 0 19.5679 0.0645835 19.8917 0.19375C20.2154 0.322917 20.4953 0.516667 20.7312 0.775L22.5073 2.58333C22.7656 2.82014 22.9542 3.1 23.073 3.42292C23.1919 3.74583 23.2509 4.06875 23.25 4.39167C23.25 4.73611 23.191 5.06462 23.073 5.37721C22.9551 5.68979 22.7665 5.97482 22.5073 6.23229L5.48958 23.25H0ZM16.1135 7.13646L15.2094 6.2L17.05 8.04063L16.1135 7.13646Z" fill="#FFC74B"/>
</svg>
