<svg width="48" height="49" viewBox="0 0 48 49" fill="none" xmlns="http://www.w3.org/2000/svg">
<path d="M20 32.6667H28C29.1 32.6667 30 31.748 30 30.6251V20.4167H33.18C34.96 20.4167 35.86 18.2117 34.6 16.9255L25.42 7.55423C25.235 7.36496 25.0152 7.2148 24.7732 7.11234C24.5313 7.00989 24.2719 6.95715 24.01 6.95715C23.7481 6.95715 23.4887 7.00989 23.2468 7.11234C23.0048 7.2148 22.785 7.36496 22.6 7.55423L13.42 16.9255C12.16 18.2117 13.04 20.4167 14.82 20.4167H18V30.6251C18 31.748 18.9 32.6667 20 32.6667ZM12 36.7501H36C37.1 36.7501 38 37.6688 38 38.7917C38 39.9146 37.1 40.8334 36 40.8334H12C10.9 40.8334 10 39.9146 10 38.7917C10 37.6688 10.9 36.7501 12 36.7501Z" fill="#222222"/>
</svg>
