<svg width="48" height="49" viewBox="0 0 48 49" fill="none" xmlns="http://www.w3.org/2000/svg">
<path d="M33.18 18.375H30V8.16667C30 7.04375 29.1 6.125 28 6.125H20C18.9 6.125 18 7.04375 18 8.16667V18.375H14.82C13.04 18.375 12.14 20.58 13.4 21.8662L22.58 31.2375C23.36 32.0337 24.62 32.0337 25.4 31.2375L34.58 21.8662C35.84 20.58 34.96 18.375 33.18 18.375ZM10 38.7917C10 39.9146 10.9 40.8333 12 40.8333H36C37.1 40.8333 38 39.9146 38 38.7917C38 37.6687 37.1 36.75 36 36.75H12C10.9 36.75 10 37.6687 10 38.7917Z" fill="#222222"/>
</svg>
