<svg xmlns="http://www.w3.org/2000/svg" xmlns:xlink="http://www.w3.org/1999/xlink" width="417" zoomAndPan="magnify" viewBox="0 0 312.75 312.749988" height="417" preserveAspectRatio="xMidYMid meet" version="1.0"><defs><clipPath id="6d7a960df9"><path d="M 23.496094 281.34375 L 35.488281 281.34375 L 35.488281 293.332031 L 23.496094 293.332031 Z M 23.496094 281.34375 " clip-rule="nonzero"/></clipPath><clipPath id="b8c8aa4c36"><path d="M 0.5 0.773438 L 12.25 0.773438 L 12.25 12.285156 L 0.5 12.285156 Z M 0.5 0.773438 " clip-rule="nonzero"/></clipPath><clipPath id="ba1a6e3907"><rect x="0" width="13" y="0" height="13"/></clipPath><clipPath id="80fd8b0354"><path d="M 1 0.269531 L 299.960938 0.269531 L 299.960938 299.3125 L 1 299.3125 Z M 1 0.269531 " clip-rule="nonzero"/></clipPath><clipPath id="ccdbf5f4e1"><rect x="0" width="300" y="0" height="300"/></clipPath></defs><g clip-path="url(#6d7a960df9)"><g transform="matrix(1, 0, 0, 1, 23, 281)"><g clip-path="url(#ba1a6e3907)"><g clip-path="url(#b8c8aa4c36)"><path fill="#f3f3f3" d="M 0.835938 10.761719 L 2.160156 9.4375 C 2.417969 9.179688 2.800781 9.117188 3.117188 9.253906 L 4.0625 8.3125 C 2.511719 6.527344 2.585938 3.8125 4.28125 2.113281 C 6.054688 0.339844 8.941406 0.339844 10.714844 2.113281 C 12.488281 3.886719 12.488281 6.773438 10.714844 8.546875 C 9.015625 10.246094 6.300781 10.316406 4.519531 8.765625 L 3.574219 9.710938 C 3.710938 10.027344 3.652344 10.410156 3.390625 10.667969 L 2.066406 11.992188 C 1.726562 12.332031 1.175781 12.332031 0.835938 11.992188 C 0.496094 11.652344 0.496094 11.101562 0.835938 10.761719 Z M 4.78125 8.046875 C 6.28125 9.542969 8.714844 9.542969 10.210938 8.046875 C 11.707031 6.550781 11.707031 4.113281 10.210938 2.617188 C 8.714844 1.121094 6.28125 1.121094 4.78125 2.617188 C 3.285156 4.113281 3.285156 6.550781 4.78125 8.046875 Z M 4.78125 8.046875 " fill-opacity="1" fill-rule="nonzero"/></g><path fill="#f3f3f3" d="M 9.34375 3.421875 C 8.558594 2.632812 7.390625 2.457031 6.429688 2.882812 C 6.410156 2.890625 6.390625 2.882812 6.382812 2.863281 L 6.230469 2.480469 C 6.226562 2.460938 6.234375 2.441406 6.25 2.433594 C 7.386719 1.9375 8.757812 2.152344 9.6875 3.078125 C 9.726562 3.121094 9.765625 3.160156 9.800781 3.199219 C 9.816406 3.214844 9.8125 3.238281 9.796875 3.25 L 9.472656 3.507812 C 9.457031 3.519531 9.4375 3.519531 9.425781 3.503906 C 9.398438 3.476562 9.371094 3.449219 9.34375 3.421875 Z M 9.34375 3.421875 " fill-opacity="1" fill-rule="nonzero"/><path fill="#ffc74b" d="M 4.371094 5.734375 C 4.777344 5.074219 5.300781 4.554688 5.980469 4.210938 C 6.058594 4.167969 6.253906 4.085938 6.269531 4.078125 C 6.644531 3.921875 7.035156 3.851562 7.4375 3.851562 C 7.839844 3.851562 8.230469 3.921875 8.605469 4.078125 C 8.625 4.085938 8.820312 4.167969 8.898438 4.210938 C 9.574219 4.554688 10.101562 5.074219 10.503906 5.734375 C 10.539062 5.785156 10.542969 5.824219 10.507812 5.878906 C 10.261719 6.289062 9.953125 6.640625 9.59375 6.941406 C 9.589844 6.949219 9.429688 7.078125 9.351562 7.132812 C 8.957031 7.417969 8.519531 7.605469 8.050781 7.710938 C 7.871094 7.75 7.46875 7.761719 7.4375 7.761719 C 7.410156 7.761719 7.007812 7.75 6.828125 7.710938 C 6.355469 7.605469 5.917969 7.417969 5.527344 7.132812 C 5.449219 7.078125 5.289062 6.949219 5.285156 6.941406 C 4.921875 6.640625 4.613281 6.289062 4.371094 5.878906 C 4.335938 5.824219 4.339844 5.785156 4.371094 5.734375 Z M 7.4375 7.042969 C 8.121094 7.042969 8.675781 6.488281 8.675781 5.808594 C 8.675781 5.125 8.121094 4.570312 7.4375 4.570312 C 6.753906 4.570312 6.199219 5.125 6.199219 5.808594 C 6.199219 6.488281 6.753906 7.042969 7.4375 7.042969 Z M 7.4375 7.042969 " fill-opacity="1" fill-rule="nonzero"/><path fill="#f3f3f3" d="M 6.738281 5.355469 C 6.738281 5.582031 6.921875 5.765625 7.148438 5.765625 C 7.378906 5.765625 7.5625 5.582031 7.5625 5.355469 C 7.5625 5.132812 7.386719 4.949219 7.164062 4.941406 C 7.25 4.914062 7.34375 4.898438 7.4375 4.898438 C 7.9375 4.898438 8.34375 5.304688 8.34375 5.808594 C 8.34375 6.308594 7.9375 6.714844 7.4375 6.714844 C 6.9375 6.714844 6.53125 6.308594 6.53125 5.808594 C 6.53125 5.570312 6.621094 5.355469 6.769531 5.195312 C 6.746094 5.242188 6.738281 5.296875 6.738281 5.355469 Z M 6.738281 5.355469 " fill-opacity="1" fill-rule="nonzero"/></g></g></g><g transform="matrix(1, 0, 0, 1, 1, 11)"><g clip-path="url(#ccdbf5f4e1)"><g clip-path="url(#80fd8b0354)"><path fill="#f3f3f3" d="M 7.847656 260.320312 L 42.300781 225.867188 C 49.058594 219.109375 59.015625 217.527344 67.292969 221.078125 L 91.847656 196.519531 C 51.488281 150.035156 53.367188 79.359375 97.554688 35.171875 C 143.742188 -11.015625 218.894531 -11.015625 265.082031 35.171875 C 311.269531 81.359375 311.269531 156.511719 265.082031 202.699219 C 220.898438 246.886719 150.210938 248.765625 103.734375 208.40625 L 79.175781 232.960938 C 82.730469 241.238281 81.144531 251.195312 74.386719 257.953125 L 39.933594 292.40625 C 31.078125 301.261719 16.710938 301.261719 7.855469 292.40625 C -1.007812 283.542969 -1.007812 269.183594 7.847656 260.320312 Z M 110.628906 189.628906 C 149.605469 228.605469 213.039062 228.605469 252.019531 189.628906 C 290.996094 150.648438 290.996094 87.214844 252.019531 48.238281 C 213.039062 9.257812 149.605469 9.257812 110.628906 48.238281 C 71.648438 87.214844 71.648438 150.648438 110.628906 189.628906 Z M 110.628906 189.628906 " fill-opacity="1" fill-rule="nonzero"/></g><path fill="#f3f3f3" d="M 229.453125 69.210938 C 208.949219 48.703125 178.519531 44.042969 153.496094 55.203125 C 153.015625 55.421875 152.460938 55.195312 152.265625 54.707031 L 148.378906 44.667969 C 148.199219 44.210938 148.410156 43.695312 148.859375 43.496094 C 178.414062 30.550781 214.195312 36.160156 238.347656 60.304688 C 239.371094 61.328125 240.367188 62.363281 241.324219 63.429688 C 241.675781 63.824219 241.621094 64.429688 241.210938 64.757812 L 232.78125 71.484375 C 232.402344 71.789062 231.855469 71.738281 231.527344 71.378906 C 230.851562 70.648438 230.160156 69.925781 229.453125 69.210938 Z M 229.453125 69.210938 " fill-opacity="1" fill-rule="nonzero"/><path fill="#ffc74b" d="M 99.90625 129.394531 C 110.464844 112.269531 124.132812 98.699219 141.789062 89.730469 C 143.820312 88.6875 148.890625 86.453125 149.351562 86.261719 C 159.152344 82.25 169.324219 80.378906 179.78125 80.441406 C 190.234375 80.378906 200.398438 82.257812 210.210938 86.261719 C 210.667969 86.453125 215.738281 88.6875 217.769531 89.730469 C 235.417969 98.699219 249.09375 112.277344 259.652344 129.394531 C 260.511719 130.777344 260.597656 131.78125 259.714844 133.242188 C 253.3125 143.890625 245.324219 153.050781 235.914062 160.910156 C 235.777344 161.027344 231.609375 164.378906 229.566406 165.859375 C 219.355469 173.300781 207.96875 178.207031 195.714844 180.882812 C 191.054688 181.898438 180.550781 182.234375 179.789062 182.234375 C 179.023438 182.234375 168.523438 181.890625 163.863281 180.882812 C 151.609375 178.207031 140.222656 173.300781 130.007812 165.859375 C 127.96875 164.378906 123.796875 161.027344 123.660156 160.910156 C 114.25 153.050781 106.265625 143.882812 99.859375 133.242188 C 98.960938 131.773438 99.046875 130.777344 99.90625 129.394531 Z M 179.773438 163.558594 C 197.539062 163.558594 211.992188 149.105469 211.992188 131.339844 C 211.992188 113.574219 197.539062 99.117188 179.773438 99.117188 C 162.003906 99.117188 147.550781 113.574219 147.550781 131.339844 C 147.550781 149.097656 162.003906 163.558594 179.773438 163.558594 Z M 179.773438 163.558594 " fill-opacity="1" fill-rule="nonzero"/><path fill="#f3f3f3" d="M 161.515625 119.519531 C 161.515625 125.449219 166.320312 130.261719 172.257812 130.261719 C 178.1875 130.261719 183 125.457031 183 119.519531 C 183 113.71875 178.40625 109.007812 172.660156 108.800781 C 174.910156 108.09375 177.296875 107.707031 179.78125 107.707031 C 192.828125 107.707031 203.410156 118.289062 203.410156 131.339844 C 203.410156 144.386719 192.828125 154.96875 179.78125 154.96875 C 166.730469 154.96875 156.148438 144.386719 156.148438 131.339844 C 156.148438 125.191406 158.492188 119.589844 162.34375 115.386719 C 161.804688 116.65625 161.515625 118.054688 161.515625 119.519531 Z M 161.515625 119.519531 " fill-opacity="1" fill-rule="nonzero"/></g></g></svg>